<svg width="48" height="49" viewBox="0 0 48 49" fill="none" xmlns="http://www.w3.org/2000/svg">
<path d="M8.87836 9.6684C9.44094 9.10598 10.2039 8.79004 10.9994 8.79004C11.7949 8.79004 12.5578 9.10598 13.1204 9.6684L23.7284 20.2764L34.3364 9.6684C34.9022 9.12192 35.66 8.81954 36.4466 8.82638C37.2332 8.83321 37.9856 9.14872 38.5418 9.70494C39.098 10.2612 39.4135 11.0136 39.4204 11.8002C39.4272 12.5868 39.1248 13.3446 38.5784 13.9104L27.9704 24.5184L38.5784 35.1264C39.1248 35.6922 39.4272 36.45 39.4204 37.2366C39.4135 38.0232 39.098 38.7756 38.5418 39.3319C37.9856 39.8881 37.2332 40.2036 36.4466 40.2104C35.66 40.2173 34.9022 39.9149 34.3364 39.3684L23.7284 28.7604L13.1204 39.3684C12.5546 39.9149 11.7967 40.2173 11.0102 40.2104C10.2236 40.2036 9.47113 39.8881 8.9149 39.3319C8.35868 38.7756 8.04317 38.0232 8.03634 37.2366C8.0295 36.45 8.33188 35.6922 8.87836 35.1264L19.4864 24.5184L8.87836 13.9104C8.31595 13.3478 8 12.5849 8 11.7894C8 10.9939 8.31595 10.231 8.87836 9.6684Z" fill="#FAFF00"/>
</svg>
